<svg xmlns="http://www.w3.org/2000/svg" viewBox="0 0 1200 900" role="img" aria-labelledby="title desc"><title id="title">Illustration disciplines mixtes</title><desc id="desc">Illustration stylisee de pratiques martiales mixtes.</desc><rect width="1200" height="900" fill="#F8F3EA"/><path d="M0 0h1200v900H0z" fill="#F8F3EA"/><path d="M0 690h1200v210H0z" fill="#8F1D21"/><circle cx="380" cy="255" r="44" fill="#151515"/><path d="M380 312l-60 145 65 145M320 457l-145 28M385 602l-92 112M385 602l120 86" fill="none" stroke="#151515" stroke-width="36" stroke-linecap="round" stroke-linejoin="round"/><circle cx="735" cy="245" r="44" fill="#8F1D21"/><path d="M728 303l80 148-85 150M808 451l185-30M723 601l-116 100M723 601l108 115" fill="none" stroke="#8F1D21" stroke-width="36" stroke-linecap="round" stroke-linejoin="round"/><path d="M545 190l105 70-105 70" fill="none" stroke="#B89A5E" stroke-width="24" stroke-linecap="round" stroke-linejoin="round"/><text x="600" y="805" fill="#F8F3EA" font-family="Arial, sans-serif" font-size="48" font-weight="700" text-anchor="middle">Disciplines mixtes</text></svg>
